# xmcd
#
# Track frame offsets:
# 182
# 16577
# 33837
# 51472
# 68167
# 85750
#
# Disc length: 1372 seconds
#
#
# Revision: 0
# Processed by: cddbd v1.5.1PL0 Copyright (c) Steve Scherf et al.
# Submitted via: FreeRIP 2.80 
#
DISCID=3f055a06
DTITLE=Smokie (Feat. Roy Chubby Brown) - Living Next Door To Alice 
DYEAR=1995
DGENRE=Humour
TTITLE0=Living Next Door To Alice (ORIGINAL)
TTITLE1=Living Next Door To Alice (WHO THE F**K IS ALICE?) (UNBLEEPED)
TTITLE2=Living Next Door To Alice (WHO THE F**K IS ALICE?) (UNBLEEPED) (LIVE IN IRELAND)
TTITLE3=Living Next Door To Alice (WHO THE F**K IS ALICE) (UNBLEEPED)
TTITLE4=Living Next Door To Alice (WHO THE F**K IS ALICE?) (BLEEPED) (LIVE IN IRELAND)
TTITLE5=Living Next Door To Alice (WHO THE F**K IS ALICE?) (BLEEPED)
EXTD=
EXTT0=
EXTT1=
EXTT2=
EXTT3=
EXTT4=
EXTT5=
PLAYORDER=
